<svg xmlns="http://www.w3.org/2000/svg" xmlns:xlink="http://www.w3.org/1999/xlink" width="500" zoomAndPan="magnify" viewBox="0 0 375 281.25" height="375" preserveAspectRatio="xMidYMid meet" version="1.0"><defs><clipPath id="7633d7627d"><path d="M 28.550781 43.96875 L 346.449219 43.96875 L 346.449219 236.207031 L 28.550781 236.207031 Z M 28.550781 43.96875 " clip-rule="nonzero"/></clipPath></defs><g clip-path="url(#7633d7627d)"><path fill="#ffbd59" d="M 291.824219 112.382812 L 295.160156 43.96875 L 238.828125 82.9375 L 174.792969 58.617188 L 194.445312 124.234375 C 181.472656 144.574219 129.65625 181.722656 129.65625 181.722656 C 130.207031 181.402344 191.804688 149.492188 213.757812 128.007812 L 201.601562 87.429688 L 241.207031 102.46875 L 276.042969 78.371094 L 273.976562 120.683594 L 307.660156 146.371094 L 266.78125 157.480469 L 252.761719 197.449219 L 229.566406 162.007812 C 128.113281 203.144531 28.730469 221.886719 28.730469 221.886719 C 28.730469 221.886719 98.613281 217.660156 220.007812 179.210938 L 257.523438 236.519531 L 280.1875 171.886719 L 346.285156 153.917969 Z M 291.824219 112.382812 " fill-opacity="1" fill-rule="nonzero"/></g></svg>