<svg xmlns="http://www.w3.org/2000/svg" xmlns:xlink="http://www.w3.org/1999/xlink" width="500" zoomAndPan="magnify" viewBox="0 0 375 281.25" height="375" preserveAspectRatio="xMidYMid meet" version="1.0"><defs><clipPath id="4232778b98"><path d="M 52.96875 28.050781 L 322.25 28.050781 L 322.25 252.453125 L 52.96875 252.453125 Z M 52.96875 28.050781 " clip-rule="nonzero"/></clipPath></defs><g clip-path="url(#4232778b98)"><path fill="#5271ff" d="M 322.011719 87.839844 C 322.011719 85.914062 320.453125 84.355469 318.53125 84.355469 L 298.8125 84.355469 L 298.8125 74.632812 C 298.8125 72.707031 297.253906 71.148438 295.332031 71.148438 L 230.617188 71.148438 L 230.617188 66.191406 C 230.617188 64.71875 229.691406 63.402344 228.300781 62.910156 L 220.40625 60.101562 L 218.589844 55.722656 L 222.1875 48.152344 C 222.820312 46.824219 222.546875 45.238281 221.507812 44.195312 L 214.472656 37.160156 C 213.429688 36.121094 211.84375 35.847656 210.515625 36.480469 L 202.949219 40.078125 L 198.566406 38.261719 L 195.757812 30.367188 C 195.265625 28.980469 193.949219 28.050781 192.476562 28.050781 L 182.527344 28.050781 C 181.054688 28.050781 179.738281 28.976562 179.246094 30.367188 L 176.4375 38.261719 L 172.054688 40.078125 L 164.488281 36.480469 C 163.160156 35.847656 161.574219 36.121094 160.53125 37.160156 L 153.496094 44.195312 C 152.457031 45.238281 152.183594 46.824219 152.8125 48.152344 L 156.410156 55.722656 L 154.597656 60.101562 L 146.703125 62.910156 C 145.3125 63.40625 144.386719 64.71875 144.386719 66.191406 L 144.386719 71.148438 L 79.667969 71.148438 C 77.746094 71.148438 76.1875 72.707031 76.1875 74.632812 L 76.1875 84.355469 L 56.46875 84.355469 C 54.546875 84.355469 52.988281 85.914062 52.988281 87.839844 L 52.988281 240.226562 C 52.988281 242.148438 54.546875 243.707031 56.46875 243.707031 L 169.183594 243.707031 C 170.5 243.707031 171.726562 244.296875 172.554688 245.316406 C 176.21875 249.851562 181.667969 252.453125 187.5 252.453125 C 193.332031 252.453125 198.777344 249.851562 202.445312 245.316406 C 203.273438 244.296875 204.5 243.707031 205.8125 243.707031 L 318.53125 243.707031 C 320.453125 243.707031 322.011719 242.148438 322.011719 240.226562 C 322.011719 240.085938 322.003906 239.945312 321.984375 239.804688 C 322.003906 239.667969 322.011719 239.527344 322.011719 239.382812 Z M 291.847656 213.09375 L 202.570312 213.09375 C 199.5625 213.09375 196.753906 214.433594 194.863281 216.773438 L 190.980469 221.574219 L 190.980469 114.28125 L 192.476562 114.28125 C 193.949219 114.28125 195.261719 113.355469 195.753906 111.96875 L 198.5625 104.074219 L 202.945312 102.257812 L 210.511719 105.855469 C 211.84375 106.488281 213.425781 106.214844 214.46875 105.171875 L 221.503906 98.136719 C 222.546875 97.09375 222.820312 95.511719 222.1875 94.179688 L 218.589844 86.613281 L 220.40625 82.230469 L 228.300781 79.421875 C 229.007812 79.171875 229.59375 78.707031 230 78.113281 L 291.847656 78.113281 Z M 151.347656 68.648438 L 158.382812 66.144531 C 159.3125 65.816406 160.058594 65.109375 160.433594 64.199219 L 163.433594 56.957031 C 163.808594 56.046875 163.785156 55.019531 163.359375 54.128906 L 160.15625 47.382812 L 163.714844 43.820312 L 170.460938 47.027344 C 171.351562 47.449219 172.378906 47.476562 173.289062 47.097656 L 180.53125 44.097656 C 181.441406 43.722656 182.148438 42.976562 182.480469 42.050781 L 184.980469 35.011719 L 190.019531 35.011719 L 192.519531 42.050781 C 192.851562 42.976562 193.558594 43.722656 194.46875 44.097656 L 201.710938 47.097656 C 202.621094 47.476562 203.648438 47.449219 204.539062 47.027344 L 211.285156 43.820312 L 214.84375 47.382812 L 211.636719 54.128906 C 211.214844 55.015625 211.1875 56.042969 211.566406 56.953125 L 214.566406 64.195312 C 214.941406 65.109375 215.6875 65.816406 216.617188 66.144531 L 223.652344 68.648438 L 223.652344 73.683594 L 216.617188 76.1875 C 215.6875 76.515625 214.941406 77.222656 214.566406 78.132812 L 211.566406 85.375 C 211.1875 86.285156 211.214844 87.3125 211.636719 88.203125 L 214.84375 94.949219 L 211.285156 98.511719 L 204.539062 95.304688 C 203.648438 94.878906 202.621094 94.855469 201.710938 95.230469 L 194.46875 98.230469 C 193.558594 98.609375 192.851562 99.351562 192.519531 100.28125 L 190.019531 107.320312 L 184.980469 107.320312 L 182.480469 100.28125 C 182.148438 99.351562 181.441406 98.609375 180.53125 98.230469 L 173.289062 95.230469 C 172.378906 94.855469 171.351562 94.878906 170.460938 95.304688 L 163.714844 98.511719 L 160.15625 94.949219 L 163.359375 88.203125 C 163.785156 87.3125 163.808594 86.285156 163.433594 85.375 L 160.433594 78.132812 C 160.058594 77.222656 159.3125 76.515625 158.382812 76.183594 L 151.347656 73.683594 Z M 83.152344 78.113281 L 144.996094 78.113281 C 145.402344 78.703125 145.988281 79.167969 146.699219 79.421875 L 154.59375 82.226562 L 156.410156 86.609375 L 152.8125 94.179688 C 152.179688 95.507812 152.453125 97.09375 153.492188 98.132812 L 160.527344 105.167969 C 161.570312 106.210938 163.15625 106.484375 164.484375 105.851562 L 172.054688 102.253906 L 176.4375 104.070312 L 179.242188 111.964844 C 179.738281 113.351562 181.050781 114.28125 182.523438 114.28125 L 184.015625 114.28125 L 184.015625 221.574219 L 180.136719 216.769531 C 178.242188 214.433594 175.433594 213.089844 172.429688 213.089844 L 83.152344 213.089844 Z M 197.03125 240.9375 C 194.691406 243.832031 191.21875 245.488281 187.5 245.488281 C 183.78125 245.488281 180.304688 243.832031 177.96875 240.9375 C 175.8125 238.273438 172.613281 236.746094 169.183594 236.746094 L 59.949219 236.746094 L 59.949219 91.320312 L 76.1875 91.320312 L 76.1875 216.574219 C 76.1875 218.496094 77.746094 220.054688 79.667969 220.054688 L 172.429688 220.054688 C 173.324219 220.054688 174.15625 220.457031 174.71875 221.152344 L 184.792969 233.605469 C 185.453125 234.425781 186.445312 234.898438 187.5 234.898438 C 188.550781 234.898438 189.546875 234.425781 190.207031 233.605469 L 200.277344 221.152344 C 200.839844 220.453125 201.675781 220.054688 202.570312 220.054688 L 295.328125 220.054688 C 297.253906 220.054688 298.8125 218.496094 298.8125 216.574219 L 298.8125 91.320312 L 315.046875 91.320312 L 315.046875 236.746094 L 205.8125 236.746094 C 202.386719 236.746094 199.1875 238.273438 197.03125 240.9375 Z M 197.03125 240.9375 " fill-opacity="1" fill-rule="nonzero"/></g><path fill="#5271ff" d="M 187.5 89.695312 C 197.714844 89.695312 206.027344 81.382812 206.027344 71.164062 C 206.027344 60.949219 197.714844 52.636719 187.5 52.636719 C 177.28125 52.636719 168.972656 60.949219 168.972656 71.164062 C 168.972656 81.382812 177.28125 89.695312 187.5 89.695312 Z M 187.5 59.601562 C 193.875 59.601562 199.0625 64.789062 199.0625 71.164062 C 199.0625 77.542969 193.875 82.730469 187.5 82.730469 C 181.121094 82.730469 175.933594 77.542969 175.933594 71.164062 C 175.933594 64.789062 181.121094 59.601562 187.5 59.601562 Z M 187.5 59.601562 " fill-opacity="1" fill-rule="nonzero"/><path fill="#5271ff" d="M 101.359375 120.785156 C 102.011719 121.4375 102.898438 121.804688 103.820312 121.804688 C 104.746094 121.804688 105.628906 121.4375 106.28125 120.785156 L 121.328125 105.738281 C 122.6875 104.378906 122.6875 102.175781 121.328125 100.816406 C 119.96875 99.457031 117.765625 99.457031 116.40625 100.816406 L 103.820312 113.402344 L 98.804688 108.382812 C 97.445312 107.023438 95.238281 107.023438 93.878906 108.382812 C 92.519531 109.742188 92.519531 111.949219 93.878906 113.308594 Z M 101.359375 120.785156 " fill-opacity="1" fill-rule="nonzero"/><path fill="#5271ff" d="M 164.804688 110.785156 L 124.929688 110.785156 C 123.007812 110.785156 121.449219 112.34375 121.449219 114.265625 C 121.449219 116.1875 123.007812 117.746094 124.929688 117.746094 L 164.804688 117.746094 C 166.726562 117.746094 168.285156 116.1875 168.285156 114.265625 C 168.285156 112.34375 166.726562 110.785156 164.804688 110.785156 Z M 164.804688 110.785156 " fill-opacity="1" fill-rule="nonzero"/><path fill="#5271ff" d="M 101.359375 155.488281 C 102.039062 156.167969 102.929688 156.507812 103.820312 156.507812 C 104.710938 156.507812 105.601562 156.167969 106.28125 155.488281 L 121.328125 140.441406 C 122.6875 139.082031 122.6875 136.875 121.328125 135.515625 C 119.96875 134.15625 117.765625 134.15625 116.40625 135.515625 L 103.820312 148.101562 L 98.804688 143.085938 C 97.445312 141.726562 95.238281 141.726562 93.878906 143.085938 C 92.519531 144.441406 92.519531 146.648438 93.878906 148.007812 Z M 101.359375 155.488281 " fill-opacity="1" fill-rule="nonzero"/><path fill="#5271ff" d="M 164.804688 145.484375 L 124.929688 145.484375 C 123.007812 145.484375 121.449219 147.042969 121.449219 148.964844 C 121.449219 150.890625 123.007812 152.449219 124.929688 152.449219 L 164.804688 152.449219 C 166.726562 152.449219 168.285156 150.890625 168.285156 148.964844 C 168.285156 147.042969 166.726562 145.484375 164.804688 145.484375 Z M 164.804688 145.484375 " fill-opacity="1" fill-rule="nonzero"/><path fill="#5271ff" d="M 121.328125 170.214844 C 119.96875 168.855469 117.765625 168.855469 116.40625 170.214844 L 103.820312 182.800781 L 98.804688 177.785156 C 97.445312 176.425781 95.238281 176.425781 93.878906 177.785156 C 92.519531 179.144531 92.519531 181.347656 93.878906 182.707031 L 101.359375 190.1875 C 102.039062 190.867188 102.929688 191.207031 103.820312 191.207031 C 104.710938 191.207031 105.601562 190.867188 106.28125 190.1875 L 121.328125 175.140625 C 122.6875 173.78125 122.6875 171.574219 121.328125 170.214844 Z M 121.328125 170.214844 " fill-opacity="1" fill-rule="nonzero"/><path fill="#5271ff" d="M 164.804688 180.183594 L 124.929688 180.183594 C 123.007812 180.183594 121.449219 181.742188 121.449219 183.667969 C 121.449219 185.589844 123.007812 187.148438 124.929688 187.148438 L 164.804688 187.148438 C 166.726562 187.148438 168.285156 185.589844 168.285156 183.667969 C 168.285156 181.742188 166.726562 180.183594 164.804688 180.183594 Z M 164.804688 180.183594 " fill-opacity="1" fill-rule="nonzero"/><path fill="#5271ff" d="M 226.070312 100.816406 L 213.484375 113.402344 L 208.46875 108.382812 C 207.109375 107.023438 204.902344 107.023438 203.542969 108.382812 C 202.183594 109.742188 202.183594 111.949219 203.542969 113.308594 L 211.023438 120.785156 C 211.675781 121.4375 212.5625 121.804688 213.484375 121.804688 C 214.410156 121.804688 215.292969 121.4375 215.945312 120.785156 L 230.992188 105.738281 C 232.355469 104.378906 232.355469 102.175781 230.992188 100.816406 C 229.632812 99.457031 227.429688 99.457031 226.070312 100.816406 Z M 226.070312 100.816406 " fill-opacity="1" fill-rule="nonzero"/><path fill="#5271ff" d="M 234.59375 117.746094 L 274.46875 117.746094 C 276.390625 117.746094 277.949219 116.1875 277.949219 114.265625 C 277.949219 112.34375 276.390625 110.785156 274.46875 110.785156 L 234.59375 110.785156 C 232.671875 110.785156 231.113281 112.34375 231.113281 114.265625 C 231.113281 116.1875 232.671875 117.746094 234.59375 117.746094 Z M 234.59375 117.746094 " fill-opacity="1" fill-rule="nonzero"/><path fill="#5271ff" d="M 211.023438 155.488281 C 211.703125 156.167969 212.59375 156.507812 213.484375 156.507812 C 214.378906 156.507812 215.269531 156.167969 215.949219 155.488281 L 230.996094 140.441406 C 232.355469 139.082031 232.355469 136.875 230.996094 135.515625 C 229.632812 134.15625 227.429688 134.15625 226.070312 135.515625 L 213.484375 148.101562 L 208.46875 143.085938 C 207.109375 141.726562 204.90625 141.726562 203.546875 143.085938 C 202.1875 144.445312 202.183594 146.648438 203.546875 148.007812 Z M 211.023438 155.488281 " fill-opacity="1" fill-rule="nonzero"/><path fill="#5271ff" d="M 274.46875 145.484375 L 234.597656 145.484375 C 232.671875 145.484375 231.113281 147.042969 231.113281 148.964844 C 231.113281 150.890625 232.671875 152.449219 234.597656 152.449219 L 274.46875 152.449219 C 276.390625 152.449219 277.949219 150.890625 277.949219 148.964844 C 277.949219 147.042969 276.390625 145.484375 274.46875 145.484375 Z M 274.46875 145.484375 " fill-opacity="1" fill-rule="nonzero"/><path fill="#5271ff" d="M 230.992188 170.214844 C 229.632812 168.855469 227.429688 168.855469 226.070312 170.214844 L 213.484375 182.800781 L 208.46875 177.785156 C 207.109375 176.425781 204.902344 176.425781 203.542969 177.785156 C 202.183594 179.144531 202.183594 181.347656 203.542969 182.707031 L 211.023438 190.1875 C 211.703125 190.867188 212.59375 191.207031 213.484375 191.207031 C 214.375 191.207031 215.265625 190.867188 215.945312 190.1875 L 230.992188 175.140625 C 232.355469 173.78125 232.355469 171.574219 230.992188 170.214844 Z M 230.992188 170.214844 " fill-opacity="1" fill-rule="nonzero"/><path fill="#5271ff" d="M 274.46875 180.183594 L 234.597656 180.183594 C 232.671875 180.183594 231.113281 181.742188 231.113281 183.667969 C 231.113281 185.589844 232.671875 187.148438 234.597656 187.148438 L 274.46875 187.148438 C 276.390625 187.148438 277.949219 185.589844 277.949219 183.667969 C 277.949219 181.742188 276.390625 180.183594 274.46875 180.183594 Z M 274.46875 180.183594 " fill-opacity="1" fill-rule="nonzero"/></svg>